<svg width="26" height="26" viewBox="0 0 26 26" fill="none" xmlns="http://www.w3.org/2000/svg">
<g id="View module" clip-path="url(#clip0_660_10274)">
<path id="Vector" d="M5.41671 11.9167H8.66671C9.26254 11.9167 9.75004 11.4292 9.75004 10.8333V6.49999C9.75004 5.90415 9.26254 5.41665 8.66671 5.41665H5.41671C4.82087 5.41665 4.33337 5.90415 4.33337 6.49999V10.8333C4.33337 11.4292 4.82087 11.9167 5.41671 11.9167ZM5.41671 19.5H8.66671C9.26254 19.5 9.75004 19.0125 9.75004 18.4167V14.0833C9.75004 13.4875 9.26254 13 8.66671 13H5.41671C4.82087 13 4.33337 13.4875 4.33337 14.0833V18.4167C4.33337 19.0125 4.82087 19.5 5.41671 19.5ZM11.9167 19.5H15.1667C15.7625 19.5 16.25 19.0125 16.25 18.4167V14.0833C16.25 13.4875 15.7625 13 15.1667 13H11.9167C11.3209 13 10.8334 13.4875 10.8334 14.0833V18.4167C10.8334 19.0125 11.3209 19.5 11.9167 19.5ZM18.4167 19.5H21.6667C22.2625 19.5 22.75 19.0125 22.75 18.4167V14.0833C22.75 13.4875 22.2625 13 21.6667 13H18.4167C17.8209 13 17.3334 13.4875 17.3334 14.0833V18.4167C17.3334 19.0125 17.8209 19.5 18.4167 19.5ZM11.9167 11.9167H15.1667C15.7625 11.9167 16.25 11.4292 16.25 10.8333V6.49999C16.25 5.90415 15.7625 5.41665 15.1667 5.41665H11.9167C11.3209 5.41665 10.8334 5.90415 10.8334 6.49999V10.8333C10.8334 11.4292 11.3209 11.9167 11.9167 11.9167ZM17.3334 6.49999V10.8333C17.3334 11.4292 17.8209 11.9167 18.4167 11.9167H21.6667C22.2625 11.9167 22.75 11.4292 22.75 10.8333V6.49999C22.75 5.90415 22.2625 5.41665 21.6667 5.41665H18.4167C17.8209 5.41665 17.3334 5.90415 17.3334 6.49999Z" fill="#76808C"/>
</g>
<defs>
<clipPath id="clip0_660_10274">
<rect width="26" height="26" fill="white"/>
</clipPath>
</defs>
</svg>
