<svg width="26" height="26" viewBox="0 0 26 26" fill="none" xmlns="http://www.w3.org/2000/svg">
<g id="View list" clip-path="url(#clip0_660_10279)">
<path id="Vector" d="M4.33333 15.1667H6.5C7.09583 15.1667 7.58333 14.6792 7.58333 14.0833V11.9167C7.58333 11.3208 7.09583 10.8333 6.5 10.8333H4.33333C3.7375 10.8333 3.25 11.3208 3.25 11.9167V14.0833C3.25 14.6792 3.7375 15.1667 4.33333 15.1667ZM4.33333 20.5833H6.5C7.09583 20.5833 7.58333 20.0958 7.58333 19.5V17.3333C7.58333 16.7375 7.09583 16.25 6.5 16.25H4.33333C3.7375 16.25 3.25 16.7375 3.25 17.3333V19.5C3.25 20.0958 3.7375 20.5833 4.33333 20.5833ZM4.33333 9.75H6.5C7.09583 9.75 7.58333 9.2625 7.58333 8.66667V6.5C7.58333 5.90417 7.09583 5.41667 6.5 5.41667H4.33333C3.7375 5.41667 3.25 5.90417 3.25 6.5V8.66667C3.25 9.2625 3.7375 9.75 4.33333 9.75ZM9.75 15.1667H20.5833C21.1792 15.1667 21.6667 14.6792 21.6667 14.0833V11.9167C21.6667 11.3208 21.1792 10.8333 20.5833 10.8333H9.75C9.15417 10.8333 8.66667 11.3208 8.66667 11.9167V14.0833C8.66667 14.6792 9.15417 15.1667 9.75 15.1667ZM9.75 20.5833H20.5833C21.1792 20.5833 21.6667 20.0958 21.6667 19.5V17.3333C21.6667 16.7375 21.1792 16.25 20.5833 16.25H9.75C9.15417 16.25 8.66667 16.7375 8.66667 17.3333V19.5C8.66667 20.0958 9.15417 20.5833 9.75 20.5833ZM8.66667 6.5V8.66667C8.66667 9.2625 9.15417 9.75 9.75 9.75H20.5833C21.1792 9.75 21.6667 9.2625 21.6667 8.66667V6.5C21.6667 5.90417 21.1792 5.41667 20.5833 5.41667H9.75C9.15417 5.41667 8.66667 5.90417 8.66667 6.5Z" fill="#76808C"/>
</g>
<defs>
<clipPath id="clip0_660_10279">
<rect width="26" height="26" fill="white"/>
</clipPath>
</defs>
</svg>
