<svg width="23" height="22" viewBox="0 0 23 22" fill="none" xmlns="http://www.w3.org/2000/svg">
<g id="Favorite border" clip-path="url(#clip0_1148_8505)">
<path id="Vector" d="M18.4996 3.68052C16.0872 2.03569 13.1082 2.80328 11.5 4.68569C9.8917 2.80328 6.91273 2.02656 4.50032 3.68052C3.22101 4.55776 2.41687 6.03811 2.36204 7.60069C2.23411 11.1462 5.37756 13.9881 10.175 18.3469L10.2664 18.4291C10.9608 19.0597 12.03 19.0597 12.7245 18.42L12.825 18.3286C17.6224 13.979 20.7567 11.1371 20.6379 7.59156C20.5831 6.03811 19.7789 4.55776 18.4996 3.68052ZM11.5914 16.9853L11.5 17.0767L11.4086 16.9853C7.05894 13.0469 4.18963 10.4426 4.18963 7.80173C4.18963 5.97414 5.56032 4.60345 7.3879 4.60345C8.79514 4.60345 10.1658 5.50811 10.6501 6.76H12.3589C12.8341 5.50811 14.2048 4.60345 15.612 4.60345C17.4396 4.60345 18.8103 5.97414 18.8103 7.80173C18.8103 10.4426 15.941 13.0469 11.5914 16.9853Z" fill="#F3F3F3"/>
</g>
<defs>
<clipPath id="clip0_1148_8505">
<rect width="21.931" height="21.931" fill="white" transform="translate(0.534485 0.0344849)"/>
</clipPath>
</defs>
</svg>
